#!OML:ASF H:\Terrain\Patient Classification 1\Terrain2\Thursday\justin.ASF
:FULLY-SPECIFIED
:DEGREES
1397
root -0.793693 23.3097 -0.360841 131.476 -89.075 -490.984
lowerback 14.9553 0.139706 -1.69964
upperback 2.44376 -0.108868 1.52421
thorax -5.7856 -0.05871 2.60285
lowerneck -17.7341 -0.958508 -8.46713
upperneck 33.8719 -1.48227 5.52671
head 14.8016 -1.28473 3.43829
rclavicle 5.66536e-015 -6.95746e-015
rhumerus -32.4179 -9.62409 -78.0213
rradius 31.5735
rwrist -9.86609
rhand -22.4123 12.2382
rfingers 7.12502
rthumb 4.01062 -17.7038
lclavicle 5.66536e-015 -6.95746e-015
lhumerus -33.6942 1.31965 84.0585
lradius 41.6961
lwrist 8.90792
lhand -19.7668 19.7133
lfingers 7.12502
lthumb 6.56492 49.5915
rfemur -48.2273 -12.0866 23.1983
rtibia 87.6766
rfoot -12.5154 -5.32776
rtoes 15.1057
lfemur -8.4964 -1.55791 -22.149
ltibia 36.6075
lfoot -20.2324 -8.38158
ltoes 16.9146
1398
root -0.907352 23.3181 -0.369122 135.635 -89.2717 -495.275
lowerback 14.8946 0.119136 -2.3392
upperback 2.35256 -0.21047 1.9004
thorax -5.83965 -0.089623 3.38716
lowerneck -17.9141 -0.973348 -8.93513
upperneck 34.4339 -1.33213 5.39938
head 15.0982 -1.32683 3.51188
rclavicle 9.19379e-015 -7.55382e-015
rhumerus -32.4502 -9.23616 -77.507
rradius 31.7194
rwrist -9.8009
rhand -22.4983 12.1838
rfingers 7.12502
rthumb 3.92755 -17.7598
lclavicle 9.19379e-015 -7.55382e-015
lhumerus -33.8777 1.86033 84.4624
lradius 41.6474
lwrist 8.66754
lhand -19.4487 19.5283
lfingers 7.12502
lthumb 6.87197 49.3968
rfemur -48.2644 -11.6854 22.8477
rtibia 85.7208
rfoot -12.5272 -4.63284
rtoes 19.7734
lfemur -7.62624 -1.73506 -22.3797
ltibia 36.0539
lfoot -19.9561 -8.37148
ltoes 18.4303
1399
root -1.02049 23.3247 -0.372119 158.592 -89.6943 -518.407
lowerback 14.8173 -0.0101607 -2.99053
upperback 2.3255 -0.472726 2.03977
thorax -5.79936 -0.203387 3.95763
lowerneck -17.9856 -1.00861 -9.00582
upperneck 34.828 -1.28452 5.09104
head 15.2995 -1.38165 3.41257
rclavicle 2.5842e-015 1.19271e-014
rhumerus -32.4119 -8.69343 -77.3997
rradius 31.8892
rwrist -9.94012
rhand -22.4175 12.2483
rfingers 7.12502
rthumb 4.00564 -17.6938
lclavicle 2.5842e-015 1.19271e-014
lhumerus -33.9684 2.19904 84.605
lradius 41.6364
lwrist 8.6941
lhand -19.2715 19.2632
lfingers 7.12502
lthumb 7.04307 49.126
rfemur -48.2694 -11.7806 22.6417
rtibia 83.5689
rfoot -11.8079 -4.8314
rtoes 16.7803
lfemur -6.79062 -1.9229 -22.8574
ltibia 35.6743
lfoot -19.8897 -8.04428
ltoes 16.8592
1400
root -1.12962 23.3422 -0.372066 176.422 -90.1188 -536.317
lowerback 14.6565 -0.183767 -2.91294
upperback 2.28466 -0.686055 1.99112
thorax -5.7367 -0.309182 3.89955
lowerneck -17.7997 -1.04655 -9.02688
upperneck 35.0229 -1.38894 5.09244
head 15.3602 -1.44458 3.40142
rclavicle 6.95746e-015 -3.97569e-016
rhumerus -32.5378 -8.62793 -77.4144
rradius 32.1745
rwrist -10.0534
rhand -22.1364 12.3512
rfingers 7.12502
rthumb 4.2771 -17.5856
lclavicle 6.95746e-015 -3.97569e-016
lhumerus -33.954 1.92884 84.5645
lradius 41.6148
lwrist 8.77794
lhand -19.1948 19.3456
lfingers 7.12502
lthumb 7.11715 49.2059
rfemur -48.2274 -11.9039 22.4976
rtibia 81.2817
rfoot -11.0046 -4.50798
rtoes 15.2493
lfemur -6.20571 -2.10401 -23.0275
ltibia 35.5022
lfoot -20.0148 -7.37503
ltoes 12.2988
1401
root -1.23695 23.3398 -0.37404 169.091 -90.4855 -529.095
lowerback 14.4713 -0.315335 -2.66523
upperback 2.28296 -0.822948 1.86399
thorax -5.63007 -0.383458 3.64438
lowerneck -17.5614 -1.05112 -9.05252
upperneck 35.1473 -1.4748 5.18847
head 15.3727 -1.48358 3.43285
rclavicle -9.74045e-015 1.27222e-014
rhumerus -32.6455 -8.88776 -77.4521
rradius 32.4985
rwrist -10.0238
rhand -22.1981 12.3636
rfingers 7.12502
rthumb 4.21745 -17.5744
lclavicle -9.74045e-015 1.27222e-014
lhumerus -33.9267 1.55827 84.4686
lradius 41.6525
lwrist 8.76117
lhand -19.5593 19.7517
lfingers 7.12502
lthumb 6.7653 49.6236
rfemur -48.1108 -12.194 22.4848
rtibia 78.8613
rfoot -9.69327 -4.52479
rtoes 12.1266
lfemur -5.74234 -2.08974 -23.1256
ltibia 35.5803
lfoot -20.1156 -7.27924
ltoes 9.66895
1402
root -1.34353 23.3191 -0.380228 161.443 -90.8471 -521.651
lowerback 14.3631 -0.417254 -2.60208
upperback 2.34535 -0.95414 1.73344
thorax -5.497 -0.453833 3.49036
lowerneck -17.3193 -0.970961 -8.79924
upperneck 35.117 -1.43463 5.07906
head 15.2925 -1.45121 3.34448
rclavicle -1.39646e-014 3.97569e-015
rhumerus -32.6732 -9.16574 -77.5084
rradius 32.8184
rwrist -10.0851
rhand -22.158 12.3488
rfingers 7.12502
rthumb 4.25625 -17.5884
lclavicle -1.39646e-014 3.97569e-015
lhumerus -33.8087 1.19697 84.3503
lradius 41.6859
lwrist 8.83766
lhand -19.6323 19.9369
lfingers 7.12502
lthumb 6.69482 49.8111
rfemur -47.8628 -12.5402 22.5588
rtibia 76.2606
rfoot -8.03712 -5.00425
rtoes 9.16652
lfemur -5.26549 -1.98472 -23.2582
ltibia 35.8382
lfoot -20.0387 -7.90769
ltoes 10.8325
1403
root -1.45007 23.3043 -0.392254 164.187 -91.1744 -524.511
lowerback 14.2436 -0.545201 -2.67162
upperback 2.36596 -1.12628 1.82825
thorax -5.39259 -0.53907 3.65892
lowerneck -16.9752 -0.791953 -8.70646
upperneck 34.8745 -1.1814 4.97787
head 15.0689 -1.33953 3.31837
rclavicle 5.86415e-015 7.95139e-016
rhumerus -32.7227 -9.31576 -77.3026
rradius 33.0913
rwrist -9.92636
rhand -21.8939 12.4921
rfingers 7.12502
rthumb 4.51123 -17.4398
lclavicle 5.86415e-015 7.95139e-016
lhumerus -33.7337 1.14369 84.3778
lradius 41.7088
lwrist 8.95385
lhand -19.3467 19.6923
lfingers 7.12502
lthumb 6.97049 49.5576
rfemur -47.5602 -12.6168 22.6357
rtibia 73.5947
rfoot -6.67057 -5.33801
rtoes 10.3976
lfemur -5.00016 -2.01902 -23.2566
ltibia 36.2593
lfoot -19.8859 -8.24865
ltoes 11.989
1404
root -1.56254 23.287 -0.403767 162.743 -91.4621 -523.186
lowerback 14.1227 -0.663596 -2.93478
upperback 2.35639 -1.3092 2.01255
thorax -5.31081 -0.624728 4.03468
lowerneck -16.6238 -0.638631 -8.94852
upperneck 34.6674 -0.902398 4.99118
head 14.8644 -1.24765 3.40436
rclavicle -1.3418e-014 3.97569e-015
rhumerus -32.7341 -8.97782 -77.0696
rradius 33.3695
rwrist -10.2471
rhand -21.9667 12.4948
rfingers 7.12502
rthumb 4.44091 -17.4386
lclavicle -1.3418e-014 3.97569e-015
lhumerus -33.743 1.54624 84.5038
lradius 41.7256
lwrist 8.69415
lhand -19.3716 19.6814
lfingers 7.12502
lthumb 6.94648 49.5474
rfemur -47.1221 -12.7211 22.6046
rtibia 70.9062
rfoot -5.31409 -5.50088
rtoes 10.2588
lfemur -4.76948 -1.96895 -23.3692
ltibia 36.8047
lfoot -19.7331 -8.17396
ltoes 11.4915
1405
root -1.67782 23.258 -0.411325 167.029 -91.7161 -527.704
lowerback 14.0927 -0.687485 -2.77788
upperback 2.32756 -1.31487 2.0217
thorax -5.32775 -0.628863 3.95568
lowerneck -16.766 -0.915205 -8.93945
upperneck 35.3251 -1.31585 4.82156
head 15.2525 -1.48085 3.27877
rclavicle 2.18663e-015 6.36111e-015
rhumerus -33.1089 -8.60546 -77.0655
rradius 34.0346
rwrist -11.2886
rhand -22.2496 12.0722
rfingers 7.12502
rthumb 4.16777 -17.8668
lclavicle 2.18663e-015 6.36111e-015
lhumerus -33.7035 1.34461 84.4824
lradius 41.6366
lwrist 8.18146
lhand -18.9236 20.0725
lfingers 7.12502
lthumb 7.37888 49.9238
rfemur -46.5017 -13.1092 22.929
rtibia 68.0959
rfoot -3.5207 -5.56552
rtoes 3.98864
lfemur -4.44321 -1.77712 -23.2738
ltibia 37.4904
lfoot -19.7576 -8.1626
ltoes 10.3987
1406
root -1.78968 23.2241 -0.423256 170.235 -92.0373 -531.087
lowerback 14.0217 -0.704692 -2.69758
upperback 2.27963 -1.32255 2.00232
thorax -5.34108 -0.632008 3.88947
lowerneck -16.5489 -1.07034 -8.79511
upperneck 35.5625 -1.62132 4.71102
head 15.3439 -1.62402 3.15622
rclavicle 1.19271e-015 -1.07344e-014
rhumerus -33.538 -8.78029 -76.9767
rradius 34.6637
rwrist -11.6166
rhand -22.0798 11.8819
rfingers 7.12502
rthumb 4.3317 -18.0538
lclavicle 1.19271e-015 -1.07344e-014
lhumerus -33.7278 0.828308 84.4424
lradius 41.6659
lwrist 7.97895
lhand -18.5511 20.2512
lfingers 7.12502
lthumb 7.7384 50.0896
rfemur -45.8582 -13.296 23.1088
rtibia 65.2474
rfoot -1.86124 -5.38525
rtoes 1.04592
lfemur -4.27426 -1.76334 -23.1378
ltibia 38.347
lfoot -19.8637 -8.39281
ltoes 10.008
